<svg xmlns="http://www.w3.org/2000/svg" xmlns:xlink="http://www.w3.org/1999/xlink" width="205" zoomAndPan="magnify" viewBox="0 0 153.75 44.249999" height="59" preserveAspectRatio="xMidYMid meet" version="1.0"><defs><g/><clipPath id="id1"><path d="M 1.160156 0 L 42.527344 0 L 42.527344 43.511719 L 1.160156 43.511719 Z M 1.160156 0 " clip-rule="nonzero"/></clipPath><clipPath id="id2"><path d="M 24.921875 20.304688 L 6.457031 20.304688 C 5.742188 20.304688 5.222656 19.621094 5.417969 18.925781 L 10.484375 0.796875 C 10.617188 0.328125 11.042969 0.00390625 11.527344 0.00390625 L 29.992188 0.00390625 C 30.707031 0.00390625 31.226562 0.691406 31.03125 1.382812 L 25.960938 19.511719 C 25.832031 19.980469 25.40625 20.304688 24.921875 20.304688 Z M 12.929688 33.992188 L 15.539062 24.65625 C 15.730469 23.964844 15.214844 23.277344 14.496094 23.277344 L 5.007812 23.277344 C 4.523438 23.277344 4.097656 23.601562 3.964844 24.070312 L 1.355469 33.40625 C 1.160156 34.097656 1.679688 34.78125 2.394531 34.78125 L 11.886719 34.78125 C 12.371094 34.78125 12.796875 34.460938 12.929688 33.992188 Z M 17.730469 24.070312 L 12.664062 42.199219 C 12.46875 42.890625 12.988281 43.578125 13.703125 43.578125 L 32.167969 43.578125 C 32.652344 43.578125 33.078125 43.253906 33.207031 42.785156 L 38.277344 24.65625 C 38.472656 23.964844 37.953125 23.277344 37.238281 23.277344 L 18.773438 23.277344 C 18.289062 23.277344 17.863281 23.601562 17.730469 24.070312 Z M 30.765625 9.59375 L 28.15625 18.925781 C 27.960938 19.621094 28.480469 20.304688 29.195312 20.304688 L 38.6875 20.304688 C 39.171875 20.304688 39.597656 19.980469 39.730469 19.511719 L 42.339844 10.179688 C 42.53125 9.484375 42.015625 8.800781 41.296875 8.800781 L 31.804688 8.800781 C 31.320312 8.800781 30.894531 9.125 30.765625 9.59375 Z M 30.765625 9.59375 " clip-rule="nonzero"/></clipPath><linearGradient x1="114.296447" gradientTransform="matrix(0.0868328, 0, 0, 0.0871478, 1.314635, 0.00468165)" y1="-47.633959" x2="358.34456" gradientUnits="userSpaceOnUse" y2="546.958436" xlink:type="simple" xlink:actuate="onLoad" id="id3" xlink:show="other"><stop stop-opacity="1" stop-color="rgb(93.299866%, 72.898865%, 16.899109%)" offset="0"/><stop stop-opacity="1" stop-color="rgb(93.299866%, 72.898865%, 16.899109%)" offset="0.0625"/><stop stop-opacity="1" stop-color="rgb(93.312073%, 72.938538%, 16.950989%)" offset="0.09375"/><stop stop-opacity="1" stop-color="rgb(93.359375%, 73.0896%, 17.149353%)" offset="0.101563"/><stop stop-opacity="1" stop-color="rgb(93.429565%, 73.313904%, 17.442322%)" offset="0.109375"/><stop stop-opacity="1" stop-color="rgb(93.501282%, 73.536682%, 17.735291%)" offset="0.117188"/><stop stop-opacity="1" stop-color="rgb(93.571472%, 73.75946%, 18.028259%)" offset="0.125"/><stop stop-opacity="1" stop-color="rgb(93.641663%, 73.983765%, 18.321228%)" offset="0.132812"/><stop stop-opacity="1" stop-color="rgb(93.711853%, 74.206543%, 18.614197%)" offset="0.140625"/><stop stop-opacity="1" stop-color="rgb(93.782043%, 74.429321%, 18.90564%)" offset="0.148438"/><stop stop-opacity="1" stop-color="rgb(93.85376%, 74.6521%, 19.198608%)" offset="0.15625"/><stop stop-opacity="1" stop-color="rgb(93.92395%, 74.876404%, 19.491577%)" offset="0.164063"/><stop stop-opacity="1" stop-color="rgb(93.994141%, 75.099182%, 19.784546%)" offset="0.171875"/><stop stop-opacity="1" stop-color="rgb(94.064331%, 75.32196%, 20.077515%)" offset="0.179688"/><stop stop-opacity="1" stop-color="rgb(94.136047%, 75.546265%, 20.368958%)" offset="0.1875"/><stop stop-opacity="1" stop-color="rgb(94.206238%, 75.769043%, 20.661926%)" offset="0.195312"/><stop stop-opacity="1" stop-color="rgb(94.276428%, 75.991821%, 20.954895%)" offset="0.203125"/><stop stop-opacity="1" stop-color="rgb(94.346619%, 76.2146%, 21.247864%)" offset="0.210938"/><stop stop-opacity="1" stop-color="rgb(94.418335%, 76.438904%, 21.540833%)" offset="0.21875"/><stop stop-opacity="1" stop-color="rgb(94.488525%, 76.661682%, 21.833801%)" offset="0.226562"/><stop stop-opacity="1" stop-color="rgb(94.558716%, 76.88446%, 22.125244%)" offset="0.234375"/><stop stop-opacity="1" stop-color="rgb(94.628906%, 77.108765%, 22.418213%)" offset="0.242188"/><stop stop-opacity="1" stop-color="rgb(94.699097%, 77.331543%, 22.711182%)" offset="0.25"/><stop stop-opacity="1" stop-color="rgb(94.770813%, 77.554321%, 23.00415%)" offset="0.257812"/><stop stop-opacity="1" stop-color="rgb(94.841003%, 77.7771%, 23.297119%)" offset="0.265625"/><stop stop-opacity="1" stop-color="rgb(94.911194%, 78.001404%, 23.588562%)" offset="0.273438"/><stop stop-opacity="1" stop-color="rgb(94.981384%, 78.224182%, 23.881531%)" offset="0.28125"/><stop stop-opacity="1" stop-color="rgb(95.053101%, 78.44696%, 24.1745%)" offset="0.281419"/><stop stop-opacity="1" stop-color="rgb(95.088196%, 78.55835%, 24.320984%)" offset="0.289063"/><stop stop-opacity="1" stop-color="rgb(95.123291%, 78.669739%, 24.467468%)" offset="0.296875"/><stop stop-opacity="1" stop-color="rgb(95.193481%, 78.894043%, 24.760437%)" offset="0.304688"/><stop stop-opacity="1" stop-color="rgb(95.263672%, 79.116821%, 25.053406%)" offset="0.3125"/><stop stop-opacity="1" stop-color="rgb(95.335388%, 79.3396%, 25.344849%)" offset="0.320313"/><stop stop-opacity="1" stop-color="rgb(95.405579%, 79.563904%, 25.637817%)" offset="0.328125"/><stop stop-opacity="1" stop-color="rgb(95.475769%, 79.786682%, 25.930786%)" offset="0.335938"/><stop stop-opacity="1" stop-color="rgb(95.545959%, 80.00946%, 26.223755%)" offset="0.34375"/><stop stop-opacity="1" stop-color="rgb(95.61615%, 80.232239%, 26.516724%)" offset="0.351563"/><stop stop-opacity="1" stop-color="rgb(95.687866%, 80.456543%, 26.808167%)" offset="0.359375"/><stop stop-opacity="1" stop-color="rgb(95.758057%, 80.679321%, 27.101135%)" offset="0.367188"/><stop stop-opacity="1" stop-color="rgb(95.828247%, 80.9021%, 27.394104%)" offset="0.375"/><stop stop-opacity="1" stop-color="rgb(95.898438%, 81.126404%, 27.687073%)" offset="0.382813"/><stop stop-opacity="1" stop-color="rgb(95.970154%, 81.349182%, 27.980042%)" offset="0.390625"/><stop stop-opacity="1" stop-color="rgb(96.040344%, 81.57196%, 28.27301%)" offset="0.398438"/><stop stop-opacity="1" stop-color="rgb(96.110535%, 81.794739%, 28.564453%)" offset="0.40625"/><stop stop-opacity="1" stop-color="rgb(96.180725%, 82.019043%, 28.857422%)" offset="0.414062"/><stop stop-opacity="1" stop-color="rgb(96.252441%, 82.241821%, 29.150391%)" offset="0.421875"/><stop stop-opacity="1" stop-color="rgb(96.322632%, 82.4646%, 29.443359%)" offset="0.429688"/><stop stop-opacity="1" stop-color="rgb(96.392822%, 82.687378%, 29.736328%)" offset="0.4375"/><stop stop-opacity="1" stop-color="rgb(96.463013%, 82.911682%, 30.027771%)" offset="0.445313"/><stop stop-opacity="1" stop-color="rgb(96.533203%, 83.13446%, 30.32074%)" offset="0.453125"/><stop stop-opacity="1" stop-color="rgb(96.604919%, 83.357239%, 30.613708%)" offset="0.460938"/><stop stop-opacity="1" stop-color="rgb(96.67511%, 83.581543%, 30.906677%)" offset="0.46875"/><stop stop-opacity="1" stop-color="rgb(96.7453%, 83.804321%, 31.199646%)" offset="0.476563"/><stop stop-opacity="1" stop-color="rgb(96.815491%, 84.0271%, 31.492615%)" offset="0.484375"/><stop stop-opacity="1" stop-color="rgb(96.887207%, 84.249878%, 31.784058%)" offset="0.492188"/><stop stop-opacity="1" stop-color="rgb(96.957397%, 84.474182%, 32.077026%)" offset="0.5"/><stop stop-opacity="1" stop-color="rgb(97.027588%, 84.69696%, 32.369995%)" offset="0.507813"/><stop stop-opacity="1" stop-color="rgb(97.097778%, 84.919739%, 32.662964%)" offset="0.515625"/><stop stop-opacity="1" stop-color="rgb(97.167969%, 85.144043%, 32.955933%)" offset="0.523438"/><stop stop-opacity="1" stop-color="rgb(97.239685%, 85.366821%, 33.247375%)" offset="0.53125"/><stop stop-opacity="1" stop-color="rgb(97.309875%, 85.5896%, 33.540344%)" offset="0.539063"/><stop stop-opacity="1" stop-color="rgb(97.380066%, 85.812378%, 33.833313%)" offset="0.546875"/><stop stop-opacity="1" stop-color="rgb(97.450256%, 86.036682%, 34.126282%)" offset="0.554688"/><stop stop-opacity="1" stop-color="rgb(97.521973%, 86.25946%, 34.41925%)" offset="0.5625"/><stop stop-opacity="1" stop-color="rgb(97.592163%, 86.482239%, 34.712219%)" offset="0.570312"/><stop stop-opacity="1" stop-color="rgb(97.662354%, 86.705017%, 35.003662%)" offset="0.578125"/><stop stop-opacity="1" stop-color="rgb(97.732544%, 86.929321%, 35.296631%)" offset="0.585938"/><stop stop-opacity="1" stop-color="rgb(97.80426%, 87.1521%, 35.5896%)" offset="0.59375"/><stop stop-opacity="1" stop-color="rgb(97.874451%, 87.374878%, 35.882568%)" offset="0.601562"/><stop stop-opacity="1" stop-color="rgb(97.944641%, 87.599182%, 36.175537%)" offset="0.609375"/><stop stop-opacity="1" stop-color="rgb(98.014832%, 87.82196%, 36.46698%)" offset="0.617188"/><stop stop-opacity="1" stop-color="rgb(98.085022%, 88.044739%, 36.759949%)" offset="0.625"/><stop stop-opacity="1" stop-color="rgb(98.156738%, 88.267517%, 37.052917%)" offset="0.632812"/><stop stop-opacity="1" stop-color="rgb(98.226929%, 88.491821%, 37.345886%)" offset="0.640625"/><stop stop-opacity="1" stop-color="rgb(98.297119%, 88.7146%, 37.638855%)" offset="0.648438"/><stop stop-opacity="1" stop-color="rgb(98.36731%, 88.937378%, 37.931824%)" offset="0.65625"/><stop stop-opacity="1" stop-color="rgb(98.439026%, 89.161682%, 38.223267%)" offset="0.664063"/><stop stop-opacity="1" stop-color="rgb(98.509216%, 89.38446%, 38.516235%)" offset="0.671875"/><stop stop-opacity="1" stop-color="rgb(98.579407%, 89.607239%, 38.809204%)" offset="0.679688"/><stop stop-opacity="1" stop-color="rgb(98.649597%, 89.830017%, 39.102173%)" offset="0.6875"/><stop stop-opacity="1" stop-color="rgb(98.721313%, 90.054321%, 39.395142%)" offset="0.695313"/><stop stop-opacity="1" stop-color="rgb(98.791504%, 90.2771%, 39.686584%)" offset="0.703125"/><stop stop-opacity="1" stop-color="rgb(98.861694%, 90.499878%, 39.979553%)" offset="0.710938"/><stop stop-opacity="1" stop-color="rgb(98.931885%, 90.724182%, 40.272522%)" offset="0.718581"/><stop stop-opacity="1" stop-color="rgb(98.96698%, 90.835571%, 40.419006%)" offset="0.71875"/><stop stop-opacity="1" stop-color="rgb(99.002075%, 90.94696%, 40.565491%)" offset="0.726563"/><stop stop-opacity="1" stop-color="rgb(99.073792%, 91.169739%, 40.858459%)" offset="0.734375"/><stop stop-opacity="1" stop-color="rgb(99.143982%, 91.392517%, 41.151428%)" offset="0.742188"/><stop stop-opacity="1" stop-color="rgb(99.214172%, 91.616821%, 41.442871%)" offset="0.75"/><stop stop-opacity="1" stop-color="rgb(99.284363%, 91.8396%, 41.73584%)" offset="0.757813"/><stop stop-opacity="1" stop-color="rgb(99.356079%, 92.062378%, 42.028809%)" offset="0.765625"/><stop stop-opacity="1" stop-color="rgb(99.42627%, 92.285156%, 42.321777%)" offset="0.773438"/><stop stop-opacity="1" stop-color="rgb(99.49646%, 92.50946%, 42.614746%)" offset="0.78125"/><stop stop-opacity="1" stop-color="rgb(99.56665%, 92.732239%, 42.906189%)" offset="0.789062"/><stop stop-opacity="1" stop-color="rgb(99.638367%, 92.955017%, 43.199158%)" offset="0.796875"/><stop stop-opacity="1" stop-color="rgb(99.708557%, 93.179321%, 43.492126%)" offset="0.804688"/><stop stop-opacity="1" stop-color="rgb(99.778748%, 93.4021%, 43.785095%)" offset="0.8125"/><stop stop-opacity="1" stop-color="rgb(99.848938%, 93.624878%, 44.078064%)" offset="0.820313"/><stop stop-opacity="1" stop-color="rgb(99.919128%, 93.847656%, 44.371033%)" offset="0.828125"/><stop stop-opacity="1" stop-color="rgb(99.977112%, 94.029236%, 44.607544%)" offset="0.84375"/><stop stop-opacity="1" stop-color="rgb(100%, 94.099426%, 44.699097%)" offset="0.875"/><stop stop-opacity="1" stop-color="rgb(100%, 94.099426%, 44.699097%)" offset="1"/></linearGradient></defs><g fill="rgb(100%, 100%, 100%)" fill-opacity="1"><g transform="translate(44.306423, 21.670477)"><g><path d="M 9.21875 -6.441406 C 10.644531 -6.742188 11.789062 -7.566406 11.789062 -9.40625 C 11.789062 -11.097656 10.722656 -12.484375 8.054688 -12.484375 L 1.089844 -12.484375 L 1.089844 0 L 7.921875 0 C 10.589844 0 11.960938 -1.296875 11.960938 -3.398438 C 11.960938 -5.386719 10.777344 -6.195312 9.21875 -6.441406 Z M 7.210938 -10.328125 C 8.394531 -10.328125 8.804688 -9.800781 8.804688 -8.84375 C 8.804688 -7.941406 8.355469 -7.339844 7.117188 -7.339844 L 3.941406 -7.339844 L 3.941406 -10.328125 Z M 7.285156 -2.179688 L 3.941406 -2.179688 L 3.941406 -5.425781 L 7.117188 -5.425781 C 8.488281 -5.425781 8.992188 -4.789062 8.992188 -3.792969 C 8.992188 -2.871094 8.5625 -2.179688 7.285156 -2.179688 Z M 7.285156 -2.179688 "/></g></g></g><g fill="rgb(100%, 100%, 100%)" fill-opacity="1"><g transform="translate(57.008185, 21.670477)"><g><path d="M 3.941406 0.242188 C 5.859375 0.242188 6.984375 -0.714844 7.417969 -2.007812 C 7.417969 -1.238281 7.472656 -0.621094 7.566406 0 L 9.988281 0 C 9.894531 -0.808594 9.839844 -1.558594 9.839844 -2.441406 L 9.839844 -6.496094 C 9.839844 -8.488281 8.449219 -9.707031 5.59375 -9.707031 C 2.742188 -9.707031 1.089844 -8.335938 1.015625 -6.328125 L 3.734375 -6.328125 C 3.773438 -7.285156 4.375 -7.792969 5.652344 -7.792969 C 6.910156 -7.792969 7.285156 -7.359375 7.285156 -6.703125 C 7.285156 -6.160156 6.984375 -5.914062 6.121094 -5.765625 L 3.90625 -5.386719 C 1.484375 -4.976562 0.824219 -4 0.824219 -2.496094 C 0.824219 -0.808594 2.046875 0.242188 3.941406 0.242188 Z M 4.882812 -1.652344 C 4.128906 -1.652344 3.566406 -2.027344 3.566406 -2.777344 C 3.566406 -3.492188 3.960938 -3.847656 4.957031 -4.09375 L 5.746094 -4.28125 C 6.328125 -4.414062 6.796875 -4.542969 7.285156 -4.882812 L 7.285156 -4.46875 C 7.285156 -2.722656 6.347656 -1.652344 4.882812 -1.652344 Z M 4.882812 -1.652344 "/></g></g></g><g fill="rgb(100%, 100%, 100%)" fill-opacity="1"><g transform="translate(67.871291, 21.670477)"><g><path d="M 7.246094 -9.6875 C 5.539062 -9.6875 4.46875 -8.824219 3.867188 -7.546875 L 3.867188 -9.386719 L 1.089844 -9.386719 L 1.089844 0 L 3.867188 0 L 3.867188 -4.261719 C 3.867188 -6.496094 4.695312 -7.433594 6.175781 -7.433594 C 7.324219 -7.433594 7.960938 -6.835938 7.960938 -5.332031 L 7.960938 0 L 10.738281 0 L 10.738281 -5.765625 C 10.738281 -8.222656 9.707031 -9.6875 7.246094 -9.6875 Z M 7.246094 -9.6875 "/></g></g></g><g fill="rgb(100%, 100%, 100%)" fill-opacity="1"><g transform="translate(79.559915, 21.670477)"><g><path d="M 0.695312 -4.695312 C 0.695312 -2.066406 2.234375 0.300781 5.894531 0.300781 C 9.199219 0.300781 10.757812 -1.671875 10.816406 -3.867188 L 8.109375 -3.867188 C 8 -2.742188 7.339844 -1.878906 5.859375 -1.878906 C 4.355469 -1.878906 3.492188 -2.570312 3.492188 -4.695312 C 3.492188 -6.796875 4.394531 -7.511719 5.894531 -7.511719 C 7.324219 -7.511719 7.960938 -6.742188 8.054688 -5.578125 L 10.757812 -5.578125 C 10.683594 -7.886719 9.085938 -9.6875 5.839844 -9.6875 C 2.195312 -9.6875 0.695312 -7.324219 0.695312 -4.695312 Z M 0.695312 -4.695312 "/></g></g></g><g fill="rgb(100%, 100%, 100%)" fill-opacity="1"><g transform="translate(90.985882, 21.670477)"><g><path d="M 5.894531 0.300781 C 9.652344 0.300781 11.097656 -2.101562 11.097656 -4.710938 C 11.097656 -7.285156 9.652344 -9.6875 5.894531 -9.6875 C 2.160156 -9.6875 0.695312 -7.304688 0.695312 -4.710938 C 0.695312 -2.085938 2.160156 0.300781 5.894531 0.300781 Z M 3.492188 -4.695312 C 3.492188 -6.777344 4.207031 -7.511719 5.894531 -7.511719 C 7.605469 -7.511719 8.316406 -6.777344 8.316406 -4.695312 C 8.316406 -2.609375 7.605469 -1.878906 5.894531 -1.878906 C 4.207031 -1.878906 3.492188 -2.609375 3.492188 -4.695312 Z M 3.492188 -4.695312 "/></g></g></g><g fill="rgb(100%, 100%, 100%)" fill-opacity="1"><g transform="translate(102.768324, 21.670477)"><g/></g></g><g fill="rgb(100%, 100%, 100%)" fill-opacity="1"><g transform="translate(107.515071, 21.670477)"><g><path d="M 6.796875 0.320312 C 9.445312 0.320312 10.738281 -0.921875 11.246094 -2.402344 L 11.246094 0 L 13.6875 0 L 13.6875 -6.648438 L 6.515625 -6.648438 L 6.515625 -4.789062 L 10.964844 -4.789062 C 10.738281 -3.230469 9.894531 -1.933594 7.417969 -1.933594 C 4.898438 -1.933594 3.832031 -3.417969 3.832031 -6.234375 C 3.832031 -9.199219 5.050781 -10.570312 7.546875 -10.570312 C 9.632812 -10.570312 10.644531 -9.6875 10.816406 -8.261719 L 13.707031 -8.261719 C 13.480469 -10.910156 11.734375 -12.804688 7.566406 -12.804688 C 2.855469 -12.804688 0.84375 -9.894531 0.84375 -6.253906 C 0.84375 -2.628906 2.683594 0.320312 6.796875 0.320312 Z M 6.796875 0.320312 "/></g></g></g><g fill="rgb(100%, 100%, 100%)" fill-opacity="1"><g transform="translate(122.355692, 21.670477)"><g><path d="M 5.894531 0.300781 C 9.652344 0.300781 11.097656 -2.101562 11.097656 -4.710938 C 11.097656 -7.285156 9.652344 -9.6875 5.894531 -9.6875 C 2.160156 -9.6875 0.695312 -7.304688 0.695312 -4.710938 C 0.695312 -2.085938 2.160156 0.300781 5.894531 0.300781 Z M 3.492188 -4.695312 C 3.492188 -6.777344 4.207031 -7.511719 5.894531 -7.511719 C 7.605469 -7.511719 8.316406 -6.777344 8.316406 -4.695312 C 8.316406 -2.609375 7.605469 -1.878906 5.894531 -1.878906 C 4.207031 -1.878906 3.492188 -2.609375 3.492188 -4.695312 Z M 3.492188 -4.695312 "/></g></g></g><g fill="rgb(100%, 100%, 100%)" fill-opacity="1"><g transform="translate(134.138133, 21.670477)"><g><path d="M 1.089844 0 L 3.867188 0 L 3.867188 -13.144531 L 1.089844 -13.144531 Z M 1.089844 0 "/></g></g></g><g fill="rgb(100%, 100%, 100%)" fill-opacity="1"><g transform="translate(139.0725, 21.670477)"><g><path d="M 8.375 -13.144531 L 8.375 -7.980469 C 7.714844 -9.050781 6.628906 -9.6875 5.011719 -9.6875 C 1.953125 -9.6875 0.695312 -7.378906 0.695312 -4.710938 C 0.695312 -1.988281 1.953125 0.300781 5.011719 0.300781 C 6.628906 0.300781 7.714844 -0.320312 8.375 -1.390625 L 8.375 0 L 11.152344 0 L 11.152344 -13.144531 Z M 5.875 -1.878906 C 4.113281 -1.878906 3.472656 -2.761719 3.472656 -4.695312 C 3.472656 -6.648438 4.113281 -7.511719 5.875 -7.511719 C 7.621094 -7.511719 8.375 -6.609375 8.375 -4.695312 C 8.375 -2.777344 7.621094 -1.878906 5.875 -1.878906 Z M 5.875 -1.878906 "/></g></g></g><g fill="rgb(93.328857%, 72.938538%, 16.859436%)" fill-opacity="1"><g transform="translate(44.306423, 36.994951)"><g><path d="M 0.769531 0 L 0.769531 -1.445312 L 1.632812 -1.445312 C 2.292969 -1.445312 2.71875 -1.820312 2.71875 -2.449219 C 2.71875 -3.109375 2.285156 -3.429688 1.632812 -3.429688 L 0.355469 -3.429688 L 0.355469 0 Z M 0.769531 -3.054688 L 1.578125 -3.054688 C 2.039062 -3.054688 2.308594 -2.832031 2.308594 -2.433594 C 2.308594 -2.035156 2.050781 -1.816406 1.578125 -1.816406 L 0.769531 -1.816406 Z M 0.769531 -3.054688 "/></g></g></g><g fill="rgb(93.328857%, 72.938538%, 16.859436%)" fill-opacity="1"><g transform="translate(47.86496, 36.994951)"><g><path d="M 0.480469 0 L 0.78125 -0.839844 L 2.335938 -0.839844 L 2.636719 0 L 3.054688 0 L 1.792969 -3.429688 L 1.324219 -3.429688 L 0.0625 0 Z M 1.558594 -3.007812 L 2.195312 -1.207031 L 0.921875 -1.207031 Z M 1.558594 -3.007812 "/></g></g></g><g fill="rgb(93.328857%, 72.938538%, 16.859436%)" fill-opacity="1"><g transform="translate(51.666124, 36.994951)"><g><path d="M 2.101562 -1.523438 C 2.488281 -1.664062 2.71875 -1.984375 2.71875 -2.449219 C 2.71875 -3.109375 2.285156 -3.429688 1.632812 -3.429688 L 0.355469 -3.429688 L 0.355469 0 L 0.769531 0 L 0.769531 -1.445312 L 1.703125 -1.445312 L 2.308594 0 L 2.761719 0 Z M 0.769531 -1.816406 L 0.769531 -3.054688 L 1.578125 -3.054688 C 2.039062 -3.054688 2.308594 -2.832031 2.308594 -2.433594 C 2.308594 -2.035156 2.050781 -1.816406 1.578125 -1.816406 Z M 0.769531 -1.816406 "/></g></g></g><g fill="rgb(93.328857%, 72.938538%, 16.859436%)" fill-opacity="1"><g transform="translate(55.314524, 36.994951)"><g><path d="M 0.480469 0 L 0.78125 -0.839844 L 2.335938 -0.839844 L 2.636719 0 L 3.054688 0 L 1.792969 -3.429688 L 1.324219 -3.429688 L 0.0625 0 Z M 1.558594 -3.007812 L 2.195312 -1.207031 L 0.921875 -1.207031 Z M 1.558594 -3.007812 "/></g></g></g><g fill="rgb(93.328857%, 72.938538%, 16.859436%)" fill-opacity="1"><g transform="translate(59.115688, 36.994951)"><g/></g></g><g fill="rgb(93.328857%, 72.938538%, 16.859436%)" fill-opacity="1"><g transform="translate(61.056709, 36.994951)"><g><path d="M 1.59375 0.046875 C 2.460938 0.046875 2.867188 -0.425781 2.867188 -1.1875 L 2.867188 -3.429688 L 2.453125 -3.429688 L 2.453125 -1.1875 C 2.453125 -0.652344 2.191406 -0.324219 1.59375 -0.324219 C 0.996094 -0.324219 0.738281 -0.652344 0.738281 -1.1875 L 0.738281 -3.429688 L 0.324219 -3.429688 L 0.324219 -1.1875 C 0.324219 -0.425781 0.726562 0.046875 1.59375 0.046875 Z M 1.59375 0.046875 "/></g></g></g><g fill="rgb(93.328857%, 72.938538%, 16.859436%)" fill-opacity="1"><g transform="translate(64.934255, 36.994951)"><g><path d="M 0.769531 0 L 0.769531 -3.160156 L 1.816406 0 L 2.222656 0 L 3.269531 -3.179688 L 3.269531 0 L 3.683594 0 L 3.683594 -3.429688 L 2.9375 -3.429688 L 2.015625 -0.511719 L 1.097656 -3.429688 L 0.355469 -3.429688 L 0.355469 0 Z M 0.769531 0 "/></g></g></g><g fill="rgb(93.328857%, 72.938538%, 16.859436%)" fill-opacity="1"><g transform="translate(69.656506, 36.994951)"><g/></g></g><g fill="rgb(93.328857%, 72.938538%, 16.859436%)" fill-opacity="1"><g transform="translate(71.597526, 36.994951)"><g><path d="M 0.769531 0 L 0.769531 -1.535156 L 2.359375 -1.535156 L 2.359375 -1.90625 L 0.769531 -1.90625 L 0.769531 -3.054688 L 2.570312 -3.054688 L 2.570312 -3.429688 L 0.355469 -3.429688 L 0.355469 0 Z M 0.769531 0 "/></g></g></g><g fill="rgb(93.328857%, 72.938538%, 16.859436%)" fill-opacity="1"><g transform="translate(74.980829, 36.994951)"><g><path d="M 1.59375 0.046875 C 2.460938 0.046875 2.867188 -0.425781 2.867188 -1.1875 L 2.867188 -3.429688 L 2.453125 -3.429688 L 2.453125 -1.1875 C 2.453125 -0.652344 2.191406 -0.324219 1.59375 -0.324219 C 0.996094 -0.324219 0.738281 -0.652344 0.738281 -1.1875 L 0.738281 -3.429688 L 0.324219 -3.429688 L 0.324219 -1.1875 C 0.324219 -0.425781 0.726562 0.046875 1.59375 0.046875 Z M 1.59375 0.046875 "/></g></g></g><g fill="rgb(93.328857%, 72.938538%, 16.859436%)" fill-opacity="1"><g transform="translate(78.858374, 36.994951)"><g><path d="M 1.636719 0 L 1.636719 -3.054688 L 2.800781 -3.054688 L 2.800781 -3.429688 L 0.0625 -3.429688 L 0.0625 -3.054688 L 1.222656 -3.054688 L 1.222656 0 Z M 1.636719 0 "/></g></g></g><g fill="rgb(93.328857%, 72.938538%, 16.859436%)" fill-opacity="1"><g transform="translate(82.403428, 36.994951)"><g><path d="M 1.59375 0.046875 C 2.460938 0.046875 2.867188 -0.425781 2.867188 -1.1875 L 2.867188 -3.429688 L 2.453125 -3.429688 L 2.453125 -1.1875 C 2.453125 -0.652344 2.191406 -0.324219 1.59375 -0.324219 C 0.996094 -0.324219 0.738281 -0.652344 0.738281 -1.1875 L 0.738281 -3.429688 L 0.324219 -3.429688 L 0.324219 -1.1875 C 0.324219 -0.425781 0.726562 0.046875 1.59375 0.046875 Z M 1.59375 0.046875 "/></g></g></g><g fill="rgb(93.328857%, 72.938538%, 16.859436%)" fill-opacity="1"><g transform="translate(86.280973, 36.994951)"><g><path d="M 2.101562 -1.523438 C 2.488281 -1.664062 2.71875 -1.984375 2.71875 -2.449219 C 2.71875 -3.109375 2.285156 -3.429688 1.632812 -3.429688 L 0.355469 -3.429688 L 0.355469 0 L 0.769531 0 L 0.769531 -1.445312 L 1.703125 -1.445312 L 2.308594 0 L 2.761719 0 Z M 0.769531 -1.816406 L 0.769531 -3.054688 L 1.578125 -3.054688 C 2.039062 -3.054688 2.308594 -2.832031 2.308594 -2.433594 C 2.308594 -2.035156 2.050781 -1.816406 1.578125 -1.816406 Z M 0.769531 -1.816406 "/></g></g></g><g fill="rgb(93.328857%, 72.938538%, 16.859436%)" fill-opacity="1"><g transform="translate(89.929372, 36.994951)"><g><path d="M 1.816406 0.046875 C 2.902344 0.046875 3.414062 -0.78125 3.414062 -1.714844 C 3.414062 -2.652344 2.902344 -3.472656 1.816406 -3.472656 C 0.738281 -3.472656 0.226562 -2.652344 0.226562 -1.714844 C 0.226562 -0.78125 0.738281 0.046875 1.816406 0.046875 Z M 1.816406 -0.328125 C 1.054688 -0.328125 0.636719 -0.910156 0.636719 -1.714844 C 0.636719 -2.515625 1.054688 -3.101562 1.816406 -3.101562 C 2.589844 -3.101562 3 -2.515625 3 -1.714844 C 3 -0.910156 2.589844 -0.328125 1.816406 -0.328125 Z M 1.816406 -0.328125 "/></g></g></g><g fill="rgb(93.328857%, 72.938538%, 16.859436%)" fill-opacity="1"><g transform="translate(94.256226, 36.994951)"><g/></g></g><g fill="rgb(93.328857%, 72.938538%, 16.859436%)" fill-opacity="1"><g transform="translate(96.197245, 36.994951)"><g><path d="M 0.769531 0 L 0.769531 -3.160156 L 1.816406 0 L 2.222656 0 L 3.269531 -3.179688 L 3.269531 0 L 3.683594 0 L 3.683594 -3.429688 L 2.9375 -3.429688 L 2.015625 -0.511719 L 1.097656 -3.429688 L 0.355469 -3.429688 L 0.355469 0 Z M 0.769531 0 "/></g></g></g><g fill="rgb(93.328857%, 72.938538%, 16.859436%)" fill-opacity="1"><g transform="translate(100.919498, 36.994951)"><g><path d="M 0.480469 0 L 0.78125 -0.839844 L 2.335938 -0.839844 L 2.636719 0 L 3.054688 0 L 1.792969 -3.429688 L 1.324219 -3.429688 L 0.0625 0 Z M 1.558594 -3.007812 L 2.195312 -1.207031 L 0.921875 -1.207031 Z M 1.558594 -3.007812 "/></g></g></g><g fill="rgb(93.328857%, 72.938538%, 16.859436%)" fill-opacity="1"><g transform="translate(104.720661, 36.994951)"><g><path d="M 0.769531 0 L 0.769531 -3.429688 L 0.355469 -3.429688 L 0.355469 0 Z M 0.769531 0 "/></g></g></g><g fill="rgb(93.328857%, 72.938538%, 16.859436%)" fill-opacity="1"><g transform="translate(106.531385, 36.994951)"><g><path d="M 1.59375 0.046875 C 2.375 0.046875 2.792969 -0.351562 2.792969 -0.957031 C 2.792969 -1.707031 2.179688 -1.835938 1.617188 -1.960938 C 1.160156 -2.058594 0.742188 -2.148438 0.742188 -2.566406 C 0.742188 -2.894531 0.984375 -3.105469 1.445312 -3.105469 C 1.824219 -3.105469 2.195312 -2.953125 2.296875 -2.484375 L 2.695312 -2.484375 C 2.582031 -3.191406 2.03125 -3.472656 1.453125 -3.472656 C 0.78125 -3.472656 0.328125 -3.113281 0.328125 -2.53125 C 0.328125 -1.855469 0.898438 -1.734375 1.433594 -1.621094 C 1.917969 -1.519531 2.382812 -1.417969 2.382812 -0.929688 C 2.382812 -0.519531 2.09375 -0.324219 1.613281 -0.324219 C 1.1875 -0.324219 0.714844 -0.488281 0.605469 -1.039062 L 0.1875 -1.039062 C 0.304688 -0.269531 0.917969 0.046875 1.59375 0.046875 Z M 1.59375 0.046875 "/></g></g></g><g fill="rgb(93.328857%, 72.938538%, 16.859436%)" fill-opacity="1"><g transform="translate(110.238191, 36.994951)"><g/></g></g><g fill="rgb(93.328857%, 72.938538%, 16.859436%)" fill-opacity="1"><g transform="translate(112.17921, 36.994951)"><g><path d="M 1.699219 0 C 1.984375 0 2.371094 -0.0625 2.621094 -0.300781 C 2.769531 -0.449219 2.871094 -0.660156 2.871094 -0.964844 C 2.871094 -1.445312 2.601562 -1.761719 2.117188 -1.796875 C 2.480469 -1.832031 2.699219 -2.160156 2.699219 -2.570312 C 2.699219 -2.816406 2.628906 -3.027344 2.472656 -3.175781 C 2.300781 -3.339844 2.035156 -3.429688 1.644531 -3.429688 L 0.355469 -3.429688 L 0.355469 0 Z M 0.769531 -3.054688 L 1.554688 -3.054688 C 1.800781 -3.054688 2.007812 -3.007812 2.140625 -2.878906 C 2.230469 -2.792969 2.28125 -2.671875 2.28125 -2.503906 C 2.28125 -2.148438 2.050781 -1.941406 1.644531 -1.941406 L 0.769531 -1.941406 Z M 0.769531 -1.574219 L 1.742188 -1.574219 C 1.933594 -1.574219 2.457031 -1.574219 2.457031 -0.992188 C 2.457031 -0.78125 2.390625 -0.640625 2.292969 -0.550781 C 2.097656 -0.371094 1.789062 -0.371094 1.652344 -0.371094 L 0.769531 -0.371094 Z M 0.769531 -1.574219 "/></g></g></g><g fill="rgb(93.328857%, 72.938538%, 16.859436%)" fill-opacity="1"><g transform="translate(115.962404, 36.994951)"><g><path d="M 2.101562 -1.523438 C 2.488281 -1.664062 2.71875 -1.984375 2.71875 -2.449219 C 2.71875 -3.109375 2.285156 -3.429688 1.632812 -3.429688 L 0.355469 -3.429688 L 0.355469 0 L 0.769531 0 L 0.769531 -1.445312 L 1.703125 -1.445312 L 2.308594 0 L 2.761719 0 Z M 0.769531 -1.816406 L 0.769531 -3.054688 L 1.578125 -3.054688 C 2.039062 -3.054688 2.308594 -2.832031 2.308594 -2.433594 C 2.308594 -2.035156 2.050781 -1.816406 1.578125 -1.816406 Z M 0.769531 -1.816406 "/></g></g></g><g fill="rgb(93.328857%, 72.938538%, 16.859436%)" fill-opacity="1"><g transform="translate(119.610803, 36.994951)"><g><path d="M 0.769531 0 L 0.769531 -3.429688 L 0.355469 -3.429688 L 0.355469 0 Z M 0.769531 0 "/></g></g></g><g fill="rgb(93.328857%, 72.938538%, 16.859436%)" fill-opacity="1"><g transform="translate(121.421528, 36.994951)"><g><path d="M 2.304688 0 L 2.304688 -0.371094 L 0.769531 -0.371094 L 0.769531 -3.429688 L 0.355469 -3.429688 L 0.355469 0 Z M 2.304688 0 "/></g></g></g><g fill="rgb(93.328857%, 72.938538%, 16.859436%)" fill-opacity="1"><g transform="translate(124.476836, 36.994951)"><g><path d="M 0.769531 0 L 0.769531 -1.542969 L 2.484375 -1.542969 L 2.484375 0 L 2.898438 0 L 2.898438 -3.429688 L 2.484375 -3.429688 L 2.484375 -1.910156 L 0.769531 -1.910156 L 0.769531 -3.429688 L 0.355469 -3.429688 L 0.355469 0 Z M 0.769531 0 "/></g></g></g><g fill="rgb(93.328857%, 72.938538%, 16.859436%)" fill-opacity="1"><g transform="translate(128.417287, 36.994951)"><g><path d="M 0.480469 0 L 0.78125 -0.839844 L 2.335938 -0.839844 L 2.636719 0 L 3.054688 0 L 1.792969 -3.429688 L 1.324219 -3.429688 L 0.0625 0 Z M 1.558594 -3.007812 L 2.195312 -1.207031 L 0.921875 -1.207031 Z M 1.558594 -3.007812 "/></g></g></g><g fill="rgb(93.328857%, 72.938538%, 16.859436%)" fill-opacity="1"><g transform="translate(132.21845, 36.994951)"><g><path d="M 0.769531 0 L 0.769531 -3.007812 L 2.304688 0 L 2.90625 0 L 2.90625 -3.429688 L 2.5 -3.429688 L 2.5 -0.414062 L 0.957031 -3.429688 L 0.355469 -3.429688 L 0.355469 0 Z M 0.769531 0 "/></g></g></g><g fill="rgb(93.328857%, 72.938538%, 16.859436%)" fill-opacity="1"><g transform="translate(136.167882, 36.994951)"><g><path d="M 1.636719 0 L 1.636719 -3.054688 L 2.800781 -3.054688 L 2.800781 -3.429688 L 0.0625 -3.429688 L 0.0625 -3.054688 L 1.222656 -3.054688 L 1.222656 0 Z M 1.636719 0 "/></g></g></g><g fill="rgb(93.328857%, 72.938538%, 16.859436%)" fill-opacity="1"><g transform="translate(139.712937, 36.994951)"><g><path d="M 2.570312 0 L 2.570312 -0.371094 L 0.769531 -0.371094 L 0.769531 -1.535156 L 2.359375 -1.535156 L 2.359375 -1.90625 L 0.769531 -1.90625 L 0.769531 -3.054688 L 2.570312 -3.054688 L 2.570312 -3.429688 L 0.355469 -3.429688 L 0.355469 0 Z M 2.570312 0 "/></g></g></g><g clip-path="url(#id1)"><g clip-path="url(#id2)"><path fill="url(#id3)" d="M 1.160156 0.00390625 L 1.160156 43.511719 L 42.527344 43.511719 L 42.527344 0.00390625 Z M 1.160156 0.00390625 " fill-rule="nonzero"/></g></g></svg>